# xmcd
#
# Track frame offsets: 
#        150
#        10147
#        21430
#        29835
#        39954
#        50260
#        60247
#        70491
#        77742
#        86577
#        97624
#        105457
#        122954
#        136266
#        146876
#        155962
#        165090
#        173258
#        179669
#        184727
#        196544
#        209978
#        218982
#        232406
#        239278
#        252011
#        266976
#
# Disc length: 3679 seconds
#
# Revision: 0
# Processed by: cddbd v1.5.2PL0 Copyright (c) Steve Scherf et al.
# Submitted via: ExactAudioCopyFreeDBPlugin 1.0
#
DISCID=800e5d1b
DTITLE=Various Artist - Hot Rockin' Music From Tennessee
DYEAR=1994
DGENRE=Rock and Roll
TTITLE0=Larry Brinkley - Jackson Dog
TTITLE1=Kenny Parchment - Treat Me Right
TTITLE2=Carl Mann - Gonna' Rock 'n' Roll Tonight
TTITLE3=Jimmie Martin Combo - Rock The Bop
TTITLE4=Robert and Gladys Luter - I'm Just A Cry Baby
TTITLE5=Eddie Bush - Little Darlin'
TTITLE6=Carl Mann - Satellite No 2
TTITLE7=Larry Brinkley - Gonna See My Boy
TTITLE8=Jimmie Martin Combo - Red Bobby Sox
TTITLE9=Kenny Parchment - Don't You Know
TTITLE10=Carl Mann - Old Lonesome Time
TTITLE11=Robert and Gladys Luter - That Old Moon Brings Teardrops To My 
TTITLE11=Eyes
TTITLE12=Eddie Bush - Confused About You
TTITLE13=Carl Mann - Rockin' Love
TTITLE14=Jimmie Martin Combo - Red Bobby Sox (Take 2)
TTITLE15=Jimmie Martin - Farther Along
TTITLE16=Larry Brinkley - Old Lonesome Love
TTITLE17=Carl Mann - Don't Bother To Tell Me Goodbye
TTITLE18=Eddie Starr - Farther Than My Eyes Can See
TTITLE19=Larry Brinkley - Have You Ever Been Lonely
TTITLE20=Eddie Starr - Long Black Veil
TTITLE21=Carl Mann - Mona Lisa
TTITLE22=Carl Mann - The Lost Chord
TTITLE23=Eddie Starr - Will The Circle Be Unbroken
TTITLE24=Carl Mann - Why Did You Go
TTITLE25=Carl Mann - I'll Always Love You Darlin'
TTITLE26=Jimmie Martin Combo - Red Bobby Sox (Take 3)
EXTD=
EXTT0=
EXTT1=
EXTT2=
EXTT3=
EXTT4=
EXTT5=
EXTT6=
EXTT7=
EXTT8=
EXTT9=
EXTT10=
EXTT11=
EXTT12=
EXTT13=
EXTT14=
EXTT15=
EXTT16=
EXTT17=
EXTT18=
EXTT19=
EXTT20=
EXTT21=
EXTT22=
EXTT23=
EXTT24=
EXTT25=
EXTT26=
PLAYORDER=
